<svg width="22" height="22" viewBox="0 0 22 22" fill="none" xmlns="http://www.w3.org/2000/svg">
<path d="M18.3091 3.47446C18.2361 3.40141 18.163 3.33266 18.09 3.26391C18.0814 3.25532 18.0728 3.25102 18.0685 3.24243C18.0126 3.19087 17.9568 3.13931 17.9009 3.08774C17.888 3.07915 17.8794 3.06626 17.8666 3.05767C17.8021 3.00181 17.7376 2.94165 17.6689 2.88579C17.5099 2.75259 17.3509 2.62368 17.1833 2.49907C17.1189 2.44751 17.0501 2.40024 16.9814 2.35298C16.7107 2.15962 16.4314 1.97915 16.1435 1.81587C15.0607 1.19282 13.8576 0.763133 12.5728 0.565476C12.5298 0.556883 12.4869 0.552587 12.4439 0.54829C12.1947 0.513915 11.9455 0.488135 11.6876 0.470947C11.6361 0.46665 11.5802 0.462353 11.5287 0.462353C11.3525 0.453759 11.1763 0.449463 10.9958 0.449463C10.8197 0.449463 10.6478 0.453759 10.4759 0.462353C10.4287 0.462353 10.3814 0.46665 10.3298 0.470947C7.78179 0.634229 5.49155 1.72134 3.7771 3.39282C3.74702 3.4229 3.71694 3.44868 3.69116 3.47876C3.66108 3.50884 3.631 3.53891 3.60522 3.5647C3.54936 3.62485 3.48921 3.68501 3.43335 3.74517C3.20132 3.99438 2.97788 4.25649 2.77163 4.53149C2.72866 4.58735 2.68569 4.64321 2.64272 4.70337C2.59546 4.77212 2.54389 4.83657 2.49663 4.90962C2.42358 5.01274 2.35483 5.11587 2.29038 5.21899C2.24741 5.28774 2.20015 5.36079 2.15718 5.43384C2.09272 5.54126 2.02827 5.64868 1.96811 5.7561C1.94663 5.79477 1.92944 5.82915 1.90796 5.86782C1.37085 6.8561 0.988426 7.94321 0.799363 9.09907C0.752098 9.39556 0.713426 9.69634 0.691941 9.99712C0.670457 10.2592 0.661865 10.5256 0.661865 10.792V10.8006C0.661865 11.0713 0.670457 11.3377 0.691941 11.6041C0.713426 11.9092 0.752098 12.21 0.799363 12.5022C0.975535 13.5678 1.31499 14.5819 1.79194 15.51C1.79194 15.51 1.79194 15.51 1.79194 15.5143C1.83061 15.5874 1.86929 15.6604 1.90796 15.7334C1.92944 15.7721 1.94663 15.8065 1.96811 15.8409C2.01108 15.9139 2.04976 15.987 2.09272 16.0557C2.15718 16.1674 2.22593 16.2749 2.29468 16.3823C2.33765 16.451 2.38061 16.5198 2.42788 16.5842C2.52671 16.7303 2.62983 16.8764 2.73726 17.0182C2.78022 17.0741 2.82319 17.1299 2.86616 17.1858C2.91772 17.2502 2.96929 17.3147 3.02085 17.3791C3.04663 17.4135 3.07241 17.4436 3.10249 17.4737C4.91577 19.6221 7.59272 21.0186 10.5962 21.1389C10.7294 21.1432 10.8626 21.1475 10.9958 21.1475C11.0388 21.1475 11.0861 21.1475 11.1291 21.1475C11.3052 21.1475 11.4814 21.1389 11.6576 21.126C12.0916 21.1002 12.5212 21.0444 12.9466 20.9627C12.9896 20.9541 13.0326 20.9456 13.0712 20.937C13.1099 20.9284 13.1572 20.9198 13.1958 20.9112C13.2431 20.8983 13.2904 20.8897 13.3419 20.8768C13.3763 20.8682 13.4107 20.8596 13.4451 20.851C13.6513 20.8038 13.8533 20.7436 14.0552 20.6834C14.0939 20.6706 14.1369 20.6577 14.1755 20.6448C14.4548 20.5545 14.7298 20.4514 15.0005 20.3397L18.2705 21.5084C18.2833 21.5127 18.2919 21.517 18.3048 21.5213C18.3865 21.5471 18.4724 21.5557 18.5583 21.5557C18.6142 21.5557 18.6701 21.5514 18.7259 21.5385C19.1943 21.444 19.4994 20.9885 19.4048 20.5202L19.349 20.2452L18.799 17.5768C19.6283 16.6229 20.2642 15.5358 20.6939 14.367C21.1107 13.237 21.3298 12.0295 21.3298 10.8049V10.7877C21.3384 7.93462 20.1783 5.3479 18.3091 3.47446ZM17.8794 16.7776L17.4841 17.2331L17.6044 17.8217L18.0814 20.142L15.413 19.1881L14.9662 19.0291L14.5279 19.2139C13.4107 19.6866 12.2248 19.9229 10.9958 19.9229C5.9728 19.9229 1.88218 15.828 1.88218 10.792C1.88218 5.7561 5.9685 1.66118 10.9958 1.66118C16.0189 1.66118 20.1095 5.7561 20.1095 10.792C20.1138 12.992 19.3189 15.119 17.8794 16.7776Z" fill="black"/>
<path d="M21.3341 10.792C21.3341 7.62095 19.9119 4.78501 17.6689 2.88579C17.5099 2.75259 17.3509 2.62368 17.1833 2.49907C17.1189 2.44751 17.0501 2.40024 16.9814 2.35298C16.7107 2.15962 16.4314 1.97915 16.1435 1.81587C15.0607 1.19282 13.8576 0.758836 12.5728 0.565476C12.5298 0.556883 12.4869 0.552587 12.4439 0.54829C12.1947 0.513915 11.9455 0.488135 11.6876 0.470947C11.6361 0.46665 11.5802 0.462353 11.5287 0.462353C11.3525 0.453759 11.1763 0.449463 10.9958 0.449463C10.8197 0.449463 10.6478 0.453759 10.4759 0.462353C10.4287 0.462353 10.3814 0.46665 10.3298 0.470947C7.78608 0.634229 5.49155 1.71704 3.7771 3.39282C3.74702 3.4229 3.71694 3.44868 3.69116 3.47876C3.66108 3.50884 3.631 3.53891 3.60522 3.5647C3.54936 3.62485 3.48921 3.68501 3.43335 3.74517C3.20132 3.99438 2.97788 4.25649 2.77163 4.53149C2.72866 4.58735 2.68569 4.64321 2.64272 4.70337C2.59546 4.77212 2.54389 4.83657 2.49663 4.90962C2.42788 5.01274 2.35913 5.11587 2.29038 5.21899C2.24741 5.28774 2.20015 5.36079 2.15718 5.43384C2.09272 5.54126 2.02827 5.64868 1.96811 5.7561C1.94663 5.79477 1.92944 5.82915 1.90796 5.86782C1.37085 6.8561 0.992723 7.94321 0.799363 9.09907C0.752098 9.39556 0.713426 9.69634 0.691941 9.99712C0.670457 10.2635 0.661865 10.5299 0.661865 10.8006C0.661865 11.0713 0.670457 11.3377 0.691941 11.6041C0.713426 11.9092 0.752098 12.21 0.799363 12.5022C0.975535 13.5678 1.31499 14.5819 1.79194 15.51C1.79194 15.51 1.79194 15.51 1.79194 15.5143C1.83061 15.5874 1.86929 15.6604 1.90796 15.7334C1.92944 15.7721 1.94663 15.8065 1.96811 15.8409C2.01108 15.9139 2.04976 15.987 2.09272 16.0557C2.15718 16.1674 2.22593 16.2749 2.29468 16.3823C2.33765 16.451 2.38061 16.5198 2.42788 16.5842C2.52671 16.7303 2.62983 16.8764 2.73726 17.0182C2.78022 17.0741 2.82319 17.1299 2.86616 17.1858C2.91772 17.2502 2.96929 17.3147 3.02085 17.3791C3.04663 17.4135 3.07241 17.4436 3.10249 17.4737C4.92007 19.6264 7.59272 21.0229 10.5962 21.1389C10.7294 21.1432 10.8626 21.1475 10.9958 21.1475C11.0388 21.1475 11.0861 21.1475 11.1291 21.1475C11.3052 21.1475 11.4814 21.1389 11.6576 21.126C12.0958 21.1002 12.5255 21.0444 12.9466 20.9627C12.9896 20.9541 13.0326 20.9456 13.0712 20.937C13.1099 20.9284 13.1572 20.9198 13.1959 20.9112C13.2431 20.8983 13.2904 20.8897 13.3419 20.8768C13.3763 20.8682 13.4107 20.8596 13.4451 20.851C13.6513 20.7995 13.8533 20.7436 14.0552 20.6834C14.0939 20.6706 14.1369 20.6577 14.1755 20.6448C14.4548 20.5545 14.7298 20.4514 15.0005 20.3397L18.2705 21.5084C18.2833 21.5127 18.2919 21.517 18.3048 21.5213C18.3908 21.5471 18.4767 21.56 18.5626 21.56C19.0826 21.56 19.5166 21.0788 19.4048 20.5245L19.349 20.2495L18.799 17.5811C19.6111 16.6444 20.2599 15.5616 20.6939 14.3713C21.1107 13.2541 21.3341 12.051 21.3341 10.792ZM17.8794 16.7776L17.4841 17.2331L17.6044 17.8217L18.0814 20.142L15.413 19.1881L14.9662 19.0291L14.5279 19.2139C13.4107 19.6866 12.2248 19.9229 10.9958 19.9229C5.9728 19.9229 1.88218 15.828 1.88218 10.792C1.88218 5.7561 5.9685 1.66118 10.9958 1.66118C16.0189 1.66118 20.1095 5.7561 20.1095 10.792C20.1138 12.992 19.3189 15.119 17.8794 16.7776Z" fill="black"/>
</svg>
