<svg width="14" height="14" viewBox="0 0 14 14" fill="none" xmlns="http://www.w3.org/2000/svg">
<circle cx="7" cy="7" r="6.5" fill="#FF8F00" stroke="white"/>
<svg width="12" height="12" viewBox="0 -6 18 35" fill="white" xmlns="http://www.w3.org/2000/svg">
<g clip-path="url(#clip0)">
<path d="M23.9478 8.95039C23.9478 7.77528 22.952 6.83277 21.7585 6.92127C20.787 6.99332 19.9928 7.76136 19.8911 8.73027C19.8189 9.41807 20.0896 10.0454 20.5531 10.4629L17.8167 13.4833C17.703 13.6036 17.5603 13.6927 17.4023 13.7421C16.8924 13.9016 16.3499 13.6175 16.1905 13.1076L12.947 4.76525C14.0577 4.52605 14.8839 3.52142 14.8455 2.33028C14.8052 1.07638 13.7884 0.0511743 12.5348 0.0019087C11.16 -0.0520913 10.0286 1.04671 10.0286 2.40983C10.0286 3.51594 10.7738 4.4473 11.7893 4.73066L8.18372 13.1076C8.12081 13.261 8.0452 13.4083 7.92488 13.522C7.53661 13.8889 6.92442 13.8716 6.55753 13.4833L3.49364 10.4188C3.89925 10.0297 4.14445 9.4746 4.11858 8.86222C4.07466 7.82389 3.23667 6.97452 2.19891 6.9186C1.0237 6.85517 0.0510468 7.79024 0.0521249 8.95227C0.0531093 10.0188 0.896484 10.9175 1.96111 10.9814C2.07427 10.9882 2.18564 10.9858 2.29444 10.9747C2.71073 14.3106 3.45183 22.2595 3.67875 23.621C3.72028 23.82 3.84698 23.9356 3.96023 23.978C4.00547 23.995 4.05492 23.9966 4.1018 23.9848L7.05731 23.246C10.4208 22.37 13.9527 22.37 17.3162 23.246L20.1936 23.9967C20.2245 24.0011 20.256 24.0011 20.2869 23.9967C20.4684 23.9707 20.5583 23.8002 20.5686 23.621L21.9467 10.9844C23.0548 10.9667 23.9478 10.0631 23.9478 8.95039Z" fill="white"/>
</g>
</svg>
