<svg width="24" height="24" viewBox="0 0 24 24" fill="none" xmlns="http://www.w3.org/2000/svg">
<path d="M12 23.1C11.8125 23.1 11.6344 23.025 11.5031 22.8937L2.22656 13.6172C1.00312 12.3937 0.328125 10.7672 0.328125 9.03748C0.328125 7.30779 1.00312 5.68123 2.22656 4.45779C4.75313 1.93123 8.85938 1.93123 11.3859 4.45779L12 5.07185L12.6141 4.45779C12.6141 4.45779 12.6141 4.45779 12.6188 4.4531C15.1453 1.92654 19.2516 1.93123 21.7781 4.4531C21.7781 4.4531 21.7781 4.4531 21.7828 4.45779C24.3047 6.98435 24.3047 11.0906 21.7781 13.6125L12.4969 22.8937C12.3656 23.025 12.1875 23.1 12 23.1ZM6.80625 3.97029C5.50781 3.97029 4.20937 4.46248 3.22031 5.45154C2.26406 6.40779 1.73438 7.68279 1.73438 9.03748C1.73438 10.3922 2.26406 11.6672 3.22031 12.6234L12 21.4031L20.7797 12.6234C22.7578 10.6453 22.7578 7.42966 20.7797 5.45623C20.7797 5.45623 20.7797 5.45623 20.775 5.45154C18.8016 3.4781 15.5859 3.47341 13.6078 5.45154C13.6078 5.45154 13.6078 5.45154 13.6031 5.45623L12.4969 6.56248C12.3656 6.69373 12.1875 6.76873 12 6.76873C11.8125 6.76873 11.6344 6.69373 11.5031 6.56248L10.3922 5.45154C9.40312 4.46248 8.10469 3.97029 6.80625 3.97029Z" fill="black"/>
</svg>
