<svg width="24" height="22" viewBox="0 0 24 22" fill="none" xmlns="http://www.w3.org/2000/svg">
<path d="M22.037 2.45404C22.0246 2.44002 22.0117 2.42633 21.9984 2.41297C20.7246 1.13858 19.0308 0.436443 17.2289 0.435974C17.2282 0.435974 17.2278 0.435974 17.2271 0.435974C15.427 0.435974 13.7341 1.13657 12.4604 2.40857C12.4602 2.40876 12.4601 2.4089 12.4599 2.40908C12.4584 2.41054 12.457 2.41199 12.4555 2.41344L12.0015 2.86832L11.547 2.41274C8.91562 -0.217932 4.63458 -0.217417 2.0039 2.41396C0.729514 3.68868 0.0278419 5.38335 0.0280762 7.18579C0.0283106 8.98827 0.730451 10.6828 2.00508 11.957L11.3368 21.2888C11.5203 21.4723 11.7607 21.564 12.0013 21.564C12.2417 21.564 12.4822 21.4723 12.6657 21.2888L21.998 11.9572C24.6167 9.33988 24.63 5.08785 22.037 2.45404Z" fill="#EB4D3D"/>
</svg>
