<svg width="24" height="24" viewBox="0 0 24 24" fill="none" xmlns="http://www.w3.org/2000/svg">
<path fill-rule="evenodd" clip-rule="evenodd" d="M15.2491 2.36198C15.0342 2.138 14.7367 2.01562 14.4329 2.01562H14.4198L14.4068 2.01611C14.1404 2.02597 13.8629 2.12069 13.6393 2.2814C13.416 2.44186 13.1532 2.74351 13.1532 3.18281V6.6293C9.11364 7.33613 6.18594 9.21978 4.11481 11.7425C1.99051 14.33 0.795125 17.5543 0.176622 20.7882L0.176458 20.7891L0.176296 20.7899C0.0860639 21.2682 0.364388 21.6416 0.622664 21.8148C0.763103 21.909 0.958181 21.9896 1.18675 21.9845C1.43641 21.9789 1.68523 21.8693 1.86029 21.6518L1.86185 21.6499L1.8634 21.6479C4.64651 18.1393 7.96015 15.8627 13.1485 15.6938V19.0628L13.1522 19.0989C13.2198 19.7525 13.803 20.236 14.465 20.172C14.753 20.1464 14.9986 20.0161 15.1773 19.848L15.1778 19.8474L23.4151 12.0599C23.4159 12.0592 23.4166 12.0585 23.4174 12.0578C23.6909 11.802 23.8527 11.4371 23.8409 11.0489C23.8433 10.6788 23.7099 10.321 23.457 10.0419L23.4375 10.0204L15.2491 2.36198ZM14.5594 3.64236V7.03593L14.5589 7.04998C14.5416 7.4824 14.2269 7.88286 13.7523 7.95589C9.85419 8.55542 7.11761 10.3011 5.20169 12.6348C3.61802 14.5638 2.5762 16.9186 1.92711 19.4104C4.79599 16.3105 8.3637 14.3211 13.6021 14.2781L13.6652 14.2776L13.7273 14.2883C14.1856 14.3674 14.5379 14.7588 14.5543 15.2336L14.5547 15.2457V18.5013L22.4344 11.0519L22.4346 11.0415C22.435 11.0235 22.4312 11.0096 22.4237 10.9977L14.5594 3.64236Z" fill="black"/>
</svg>
