<svg width="24" height="24" viewBox="0 0 24 24" fill="none" xmlns="http://www.w3.org/2000/svg">
<path d="M20.3946 3.60745C18.1529 1.3657 15.1723 0.131104 11.9979 0.131104C8.82762 0.131104 5.84708 1.36565 3.60533 3.6074C1.36362 5.84915 0.129028 8.8297 0.129028 12C0.129028 15.1703 1.36362 18.1508 3.60533 20.3926C5.84708 22.6343 8.82762 23.8689 11.9979 23.8689C15.1682 23.8689 18.1488 22.6343 20.3905 20.3926C22.6103 18.1727 23.8426 15.2282 23.8664 12.0926C23.8694 12.0622 23.8709 12.0313 23.8709 12C23.8709 8.8297 22.6363 5.84915 20.3946 3.60745ZM21.9918 12C21.9918 17.5107 17.5085 21.9939 11.9979 21.9939C6.4872 21.9939 2.00403 17.5107 2.00403 12C2.00403 6.48932 6.48725 2.0061 12.002 2.0061C17.4844 2.0061 21.9499 6.4431 21.9956 11.9149C21.9931 11.9429 21.9918 11.9714 21.9918 12Z"/>
<path d="M16.7911 13.3449L12.9375 11.4184V5.44043C12.9375 4.92265 12.5178 4.50293 12 4.50293C11.4822 4.50293 11.0625 4.92265 11.0625 5.44043V11.9979C11.0625 12.353 11.2632 12.6776 11.5808 12.8364L15.9526 15.022C16.0873 15.0893 16.2302 15.1211 16.3711 15.1211C16.715 15.1211 17.0462 14.9312 17.2104 14.6027C17.4419 14.1396 17.2542 13.5765 16.7911 13.3449Z" />
</svg>
