<svg width="24" height="24" viewBox="0 0 24 24" fill="none" xmlns="http://www.w3.org/2000/svg">
<path d="M11.0672 2.83127C12.6563 3.37502 15.3516 6.11252 16.5844 7.82346C17.986 9.76877 18.7453 11.8735 18.9094 14.2547C19.0547 16.3547 18.6094 18.2203 17.6156 19.65C17.1281 20.3485 16.5188 20.9297 15.8016 21.375C15.0422 21.8438 14.161 22.1672 13.186 22.3219C12.7688 22.3922 12.3422 22.425 11.9297 22.425C11.0953 22.425 10.2844 22.2891 9.52033 22.0219C8.77502 21.7594 8.09533 21.3797 7.49533 20.8922C6.25314 19.8844 5.44689 18.4969 5.16096 16.8844C4.86096 15.1922 5.20783 13.5047 6.25314 11.5594C6.30002 11.4703 6.35158 11.3766 6.39846 11.2875C6.64689 10.8281 6.90471 10.3547 7.13439 9.84846C7.39689 10.6969 7.70627 11.461 7.77189 11.8125L8.77971 14.625L10.1485 12.1547C11.5266 9.43127 11.6766 5.88283 11.0672 2.83127ZM8.83127 0.220337C10.1953 3.55784 10.6031 8.38127 9.01408 11.55C8.69533 9.89533 7.83752 6.7219 6.39377 5.80784C6.76408 7.84221 5.84533 9.36096 5.01564 10.8985C3.96096 12.8531 3.37971 14.9016 3.77814 17.1328C4.48596 21.136 7.89846 23.836 11.9297 23.836C12.4172 23.836 12.9141 23.7985 13.4156 23.7141C18.1735 22.9406 20.6485 18.9703 20.3156 14.1563C19.9266 8.56877 16.5375 4.77659 12.0938 1.81409C11.1797 1.2094 10.111 0.834399 8.83127 0.220337Z" fill="black"/>
</svg>
