<?xml version="1.0" encoding="utf-8"?>
<!-- Generator: Adobe Illustrator 21.0.2, SVG Export Plug-In . SVG Version: 6.00 Build 0)  -->
<svg version="1.1" id="Layer_1" xmlns="http://www.w3.org/2000/svg" xmlns:xlink="http://www.w3.org/1999/xlink" x="0px" y="0px"
	 viewBox="0 0 558.2 61.7" style="enable-background:new 0 0 558.2 61.7;" xml:space="preserve">
<style type="text/css">
	.st0{fill:#FFF;}
</style>
<g>
	<path class="st0" d="M0,0.4h17.9l14.6,23.7L47.1,0.4H65v61.2H48.1V26.5L32.5,50.4h-0.3L16.7,26.6v35H0V0.4z"/>
</g>
<g>
	<path class="st0" d="M112.7,0H129l26,61.6h-18.2l-4.5-10.9h-23.5l-4.4,10.9H86.6L112.7,0z M127.5,37.5l-6.8-17.4l-6.9,17.4H127.5z"
		/>
</g>
<g>
	<path class="st0" d="M177.1,0.4h23.6c5.5,0,10.4,0.7,14.6,2.2c4.3,1.5,7.9,3.6,10.8,6.2c2.9,2.7,5.2,5.9,6.7,9.6s2.3,7.8,2.3,12.2
		v0.2c0,4.4-0.8,8.5-2.4,12.3s-3.8,7-6.8,9.7c-3,2.7-6.6,4.9-11,6.4c-4.3,1.5-9.2,2.3-14.7,2.3H177V0.4H177.1z M201,46.5
		c5.1,0,9.2-1.3,12.3-4c3.1-2.7,4.6-6.5,4.6-11.4v-0.2c0-4.9-1.5-8.7-4.6-11.4s-7.2-4.1-12.3-4.1h-6.9v31.1H201z"/>
</g>
<path class="st0" d="M259.9,0.4h31.3c3.8,0,7.1,0.5,9.9,1.4c2.7,0.9,5,2.3,6.8,4.1c1.2,1.2,2.2,2.7,2.9,4.3c0.7,1.6,1,3.5,1,5.6V16
	c0,3.6-0.9,6.4-2.7,8.6s-4,3.9-6.7,5c3.7,1.2,6.7,3,8.9,5.3c2.2,2.3,3.3,5.5,3.3,9.7v0.2c0,5.3-2,9.4-6.1,12.4
	c-4,3-9.7,4.5-17.1,4.5h-31.5L259.9,0.4L259.9,0.4z M287.1,24.8c2.6,0,4.6-0.4,6-1.3c1.4-0.9,2.1-2.2,2.1-4v-0.2
	c0-1.7-0.6-3-1.9-3.9s-3.2-1.4-5.8-1.4h-11v10.7h10.6V24.8z M289.5,47.9c2.6,0,4.6-0.5,6-1.4c1.4-1,2.1-2.3,2.1-4.1v-0.2
	c0-1.7-0.7-3-2-4s-3.4-1.5-6.3-1.5h-12.9V48h13.1V47.9z"/>
<path class="st0" d="M360.3,0h16.3l26,61.6h-18.2l-4.5-10.9h-23.6l-4.4,10.9h-17.8L360.3,0z M375.2,37.5l-6.8-17.4l-6.9,17.4H375.2z
	"/>
<path class="st0" d="M425.3,0.4h28.9c4.7,0,8.7,0.6,12,1.7c3.3,1.2,5.9,2.8,7.9,4.9c3.6,3.5,5.4,8.2,5.4,14.2v0.2
	c0,4.7-1.1,8.6-3.4,11.7c-2.3,3.1-5.3,5.4-9.2,7.1l14.6,21.3h-19.6L449.6,43h-0.2h-7.3v18.6h-16.9L425.3,0.4L425.3,0.4z M453.5,29.8
	c2.9,0,5.2-0.7,6.7-2c1.6-1.3,2.4-3.1,2.4-5.3v-0.2c0-2.4-0.8-4.3-2.4-5.5c-1.6-1.2-3.9-1.8-6.7-1.8h-11.1v14.7h11.1V29.8z"/>
<path class="st0" d="M504.1,49.2l30.7-34.5h-30.6V0.4h54v12.3l-30.7,34.5h30.7v14.4h-54.1L504.1,49.2L504.1,49.2z"/>
</svg>
