<svg width="24" height="24" viewBox="0 0 24 24" fill="none" xmlns="http://www.w3.org/2000/svg">
<path d="M22.9639 22.3696L16.2534 15.6591C17.7537 14.0139 18.6698 11.8271 18.6698 9.43038C18.6698 4.32832 14.519 0.17749 9.41695 0.17749C4.31489 0.17749 0.164062 4.32832 0.164062 9.43038C0.164062 14.5324 4.31489 18.6833 9.41695 18.6833C11.4475 18.6833 13.327 18.0252 14.8546 16.912L21.6381 23.6955C21.8211 23.8785 22.061 23.9701 22.301 23.9701C22.5409 23.9701 22.7808 23.8785 22.9639 23.6955C23.33 23.3293 23.33 22.7357 22.9639 22.3696ZM2.03906 9.43038C2.03906 5.36219 5.34877 2.05249 9.41695 2.05249C13.4851 2.05249 16.7948 5.36219 16.7948 9.43038C16.7948 13.4986 13.4851 16.8083 9.41695 16.8083C5.34877 16.8083 2.03906 13.4986 2.03906 9.43038Z" fill="black"/>
</svg>
